<svg>
    <defs xmlns="http://www.w3.org/2000/svg">
        <g id="background">
            <path fill="url(#background-gradient)" stroke="none" d=" M 90.75 23.05 Q 89.5 23.05 88.85 24.15 88.15 25.25 88.85 26.35 97.25 40.2 95.15 56.15 93.05 71.65 81.75 82.6 70.35 93.7 54.9 95.25 32.95 97.55 17.6 81.85 2.2 66.2 4.85 44.2 6.6 30.2 16.15 19.7 25.65 9.1 39.25 5.8 50.55 3 61.7 5.95 62.85 6.3 63.7 5.65 64.6 5 64.6 3.85 64.6 2.25 62.95 1.7 52.55 -1.1 41.6 0.65 25.55 3.3 14.4 14.85 3.1 26.25 0.65 42.4 -2.95 66.9 14 84.5 30.85 102.1 55.2 99.7 72.6 97.9 85.2 85.4 97.95 72.8 99.7 55.35 101.45 38.55 92.75 24.05 92.05 23.05 90.75 23.05 Z" />
        </g>
        <mask id="mask">
            <path fill="#FFFFFF" stroke="none" d=" M 82.2 82.15 Q 95.5 68.85 95.5 49.95 95.5 31.1 82.2 17.8 68.85 4.5 50 4.5 31.15 4.5 17.8 17.8 4.5 31.1 4.5 49.95 4.5 68.85 17.8 82.15 31.15 95.45 50 95.45 68.85 95.45 82.2 82.15 Z" />
        </mask>
        <linearGradient id="background-gradient" x1="0" y1="0" y2="1" x2="0">
            <stop stop-color="#8d80ec" offset="0%" />
            <stop stop-color="#46eaff" offset="100%" />
        </linearGradient>
        <g transform="scale(3.3333333333333335)" id="picture">
            <path d="M28.1 1.9C26.9.7 25.3 0 23.5 0c-1.7 0-3.4.7-4.6 1.9l-6.2 6.2c-1.2 1.2-1.9 2.8-1.9 4.6s.7 3.4 1.9 4.6c.4.4 1 .4 1.4 0s.4-1 0-1.4c-.8-.8-1.3-2-1.3-3.2s.5-2.3 1.3-3.2l6.2-6.2c.8-.8 2-1.3 3.2-1.3s2.3.5 3.2 1.3c.8.8 1.3 2 1.3 3.2s-.5 2.3-1.3 3.2l-6.2 6.2c-.4.4-.4 1 0 1.4.2.2.5.3.7.3s.5-.1.7-.3l6.2-6.2C29.3 9.8 30 8.2 30 6.5c0-1.8-.7-3.4-1.9-4.6z M15.8 12.7c-.4.4-.4 1 0 1.4.8.8 1.3 2 1.3 3.2s-.5 2.3-1.3 3.2l-6.2 6.2c-.8.8-2 1.3-3.2 1.3s-2.3-.5-3.2-1.3c-.8-.8-1.3-2-1.3-3.2s.5-2.3 1.3-3.2l6.2-6.2c.4-.4.4-1 0-1.4s-1-.4-1.4 0l-6.2 6.2C.7 20.2 0 21.8 0 23.5s.7 3.4 1.9 4.6C3.1 29.3 4.7 30 6.5 30s3.4-.7 4.6-1.9l6.2-6.2c1.2-1.2 1.9-2.9 1.9-4.6s-.7-3.4-1.9-4.6c-.4-.3-1.1-.3-1.5 0z" />
        </g>
        <linearGradient id="picture-gradient" x1="0" y1="0" y2="1" x2="0">
            <stop stop-color="#fdfe9a" offset="0%" />
            <stop stop-color="#0feaf8" offset="100%" />
        </linearGradient>
    </defs>
    <use xmlns="http://www.w3.org/2000/svg" xlink:href="#background" xmlns:xlink="http://www.w3.org/1999/xlink" fill="url(#background-gradient)" />
    <g xmlns="http://www.w3.org/2000/svg" mask="url(#mask)">
        <g transform="             translate(                                 50 50 )                             translate(0 0)  scale(0.6000000000000001)                               translate(                                 -50 -50 )">
            <use xlink:href="#picture" xmlns:xlink="http://www.w3.org/1999/xlink" fill="url(#picture-gradient)" />
        </g>
    </g>
</svg>